<mxfile host="app.diagrams.net" modified="2023-01-06T08:13:10.028Z" agent="5.0 (Windows NT 10.0; Win64; x64) AppleWebKit/537.36 (KHTML, like Gecko) Chrome/108.0.0.0 Safari/537.36" version="20.7.4" etag="5df_ldMWgehbmSuFCBQ_" type="github">
  <diagram id="h0ybxF51CnQSGYeayl0b" name="第 1 页">
    <mxGraphModel dx="1702" dy="431" grid="1" gridSize="10" guides="1" tooltips="1" connect="1" arrows="1" fold="1" page="1" pageScale="1" pageWidth="827" pageHeight="1169" math="0" shadow="0">
      <root>
        <mxCell id="0" />
        <mxCell id="1" parent="0" />
        <mxCell id="bXZ4fRCA8wgIaVC62o3b-1" style="edgeStyle=orthogonalEdgeStyle;rounded=0;orthogonalLoop=1;jettySize=auto;html=1;strokeColor=#000000;" edge="1" parent="1" source="bXZ4fRCA8wgIaVC62o3b-3" target="bXZ4fRCA8wgIaVC62o3b-8">
          <mxGeometry relative="1" as="geometry" />
        </mxCell>
        <mxCell id="bXZ4fRCA8wgIaVC62o3b-2" style="edgeStyle=orthogonalEdgeStyle;rounded=0;orthogonalLoop=1;jettySize=auto;html=1;entryX=0;entryY=0.5;entryDx=0;entryDy=0;strokeColor=#000000;" edge="1" parent="1" source="bXZ4fRCA8wgIaVC62o3b-3" target="bXZ4fRCA8wgIaVC62o3b-12">
          <mxGeometry relative="1" as="geometry">
            <Array as="points">
              <mxPoint x="180" y="55" />
            </Array>
          </mxGeometry>
        </mxCell>
        <mxCell id="bXZ4fRCA8wgIaVC62o3b-3" value="解释中" style="rounded=1;whiteSpace=wrap;html=1;" vertex="1" parent="1">
          <mxGeometry x="150" y="180" width="70" height="30" as="geometry" />
        </mxCell>
        <mxCell id="bXZ4fRCA8wgIaVC62o3b-4" value="" style="ellipse;html=1;shape=startState;fillColor=#000000;strokeColor=#000000;" vertex="1" parent="1">
          <mxGeometry x="-60" y="180" width="30" height="30" as="geometry" />
        </mxCell>
        <mxCell id="bXZ4fRCA8wgIaVC62o3b-5" value="" style="edgeStyle=orthogonalEdgeStyle;html=1;verticalAlign=bottom;endArrow=open;endSize=8;strokeColor=#000000;rounded=0;entryX=0;entryY=0.5;entryDx=0;entryDy=0;" edge="1" parent="1" source="bXZ4fRCA8wgIaVC62o3b-4" target="bXZ4fRCA8wgIaVC62o3b-31">
          <mxGeometry relative="1" as="geometry">
            <mxPoint x="90" y="195" as="targetPoint" />
          </mxGeometry>
        </mxCell>
        <mxCell id="bXZ4fRCA8wgIaVC62o3b-6" value="csdb同步手册" style="text;html=1;align=center;verticalAlign=middle;resizable=0;points=[];autosize=1;strokeColor=none;fillColor=none;" vertex="1" parent="1">
          <mxGeometry x="-50" y="160" width="100" height="30" as="geometry" />
        </mxCell>
        <mxCell id="bXZ4fRCA8wgIaVC62o3b-7" style="edgeStyle=orthogonalEdgeStyle;rounded=0;orthogonalLoop=1;jettySize=auto;html=1;entryX=0;entryY=0.5;entryDx=0;entryDy=0;strokeColor=#000000;" edge="1" parent="1" source="bXZ4fRCA8wgIaVC62o3b-8" target="bXZ4fRCA8wgIaVC62o3b-10">
          <mxGeometry relative="1" as="geometry" />
        </mxCell>
        <mxCell id="bXZ4fRCA8wgIaVC62o3b-8" value="待审核" style="rounded=1;whiteSpace=wrap;html=1;" vertex="1" parent="1">
          <mxGeometry x="264" y="180" width="70" height="30" as="geometry" />
        </mxCell>
        <mxCell id="bXZ4fRCA8wgIaVC62o3b-9" style="edgeStyle=orthogonalEdgeStyle;rounded=0;orthogonalLoop=1;jettySize=auto;html=1;strokeColor=#000000;" edge="1" parent="1" source="bXZ4fRCA8wgIaVC62o3b-10" target="bXZ4fRCA8wgIaVC62o3b-16">
          <mxGeometry relative="1" as="geometry" />
        </mxCell>
        <mxCell id="bXZ4fRCA8wgIaVC62o3b-10" value="待COC配置" style="rounded=1;whiteSpace=wrap;html=1;" vertex="1" parent="1">
          <mxGeometry x="370" y="180" width="70" height="30" as="geometry" />
        </mxCell>
        <mxCell id="bXZ4fRCA8wgIaVC62o3b-11" style="edgeStyle=orthogonalEdgeStyle;rounded=0;orthogonalLoop=1;jettySize=auto;html=1;strokeColor=#000000;" edge="1" parent="1" source="bXZ4fRCA8wgIaVC62o3b-12" target="bXZ4fRCA8wgIaVC62o3b-19">
          <mxGeometry relative="1" as="geometry" />
        </mxCell>
        <mxCell id="bXZ4fRCA8wgIaVC62o3b-12" value="解析失败" style="rounded=1;whiteSpace=wrap;html=1;" vertex="1" parent="1">
          <mxGeometry x="264" y="40" width="70" height="30" as="geometry" />
        </mxCell>
        <mxCell id="bXZ4fRCA8wgIaVC62o3b-13" style="edgeStyle=orthogonalEdgeStyle;rounded=0;orthogonalLoop=1;jettySize=auto;html=1;entryX=0;entryY=0.5;entryDx=0;entryDy=0;strokeColor=#000000;" edge="1" parent="1" source="bXZ4fRCA8wgIaVC62o3b-15" target="bXZ4fRCA8wgIaVC62o3b-19">
          <mxGeometry relative="1" as="geometry" />
        </mxCell>
        <mxCell id="bXZ4fRCA8wgIaVC62o3b-14" style="edgeStyle=orthogonalEdgeStyle;rounded=0;orthogonalLoop=1;jettySize=auto;html=1;entryX=0.5;entryY=1;entryDx=0;entryDy=0;strokeColor=#000000;" edge="1" parent="1" source="bXZ4fRCA8wgIaVC62o3b-15" target="bXZ4fRCA8wgIaVC62o3b-18">
          <mxGeometry relative="1" as="geometry" />
        </mxCell>
        <mxCell id="bXZ4fRCA8wgIaVC62o3b-15" value="已发布" style="rounded=1;whiteSpace=wrap;html=1;" vertex="1" parent="1">
          <mxGeometry x="570" y="180" width="70" height="30" as="geometry" />
        </mxCell>
        <mxCell id="bXZ4fRCA8wgIaVC62o3b-16" value="COC进行中" style="rounded=1;whiteSpace=wrap;html=1;" vertex="1" parent="1">
          <mxGeometry x="470" y="180" width="70" height="30" as="geometry" />
        </mxCell>
        <mxCell id="bXZ4fRCA8wgIaVC62o3b-17" style="edgeStyle=orthogonalEdgeStyle;rounded=0;orthogonalLoop=1;jettySize=auto;html=1;strokeColor=#000000;" edge="1" parent="1" source="bXZ4fRCA8wgIaVC62o3b-18" target="bXZ4fRCA8wgIaVC62o3b-19">
          <mxGeometry relative="1" as="geometry" />
        </mxCell>
        <mxCell id="bXZ4fRCA8wgIaVC62o3b-18" value="失效" style="rounded=1;whiteSpace=wrap;html=1;" vertex="1" parent="1">
          <mxGeometry x="570" y="90" width="70" height="30" as="geometry" />
        </mxCell>
        <mxCell id="bXZ4fRCA8wgIaVC62o3b-19" value="" style="ellipse;html=1;shape=endState;fillColor=#000000;strokeColor=#ff0000;" vertex="1" parent="1">
          <mxGeometry x="700" y="180" width="30" height="30" as="geometry" />
        </mxCell>
        <mxCell id="bXZ4fRCA8wgIaVC62o3b-20" value="" style="endArrow=classic;html=1;rounded=0;strokeColor=#000000;exitX=1;exitY=0.5;exitDx=0;exitDy=0;entryX=0;entryY=0.5;entryDx=0;entryDy=0;edgeStyle=orthogonalEdgeStyle;" edge="1" parent="1" source="bXZ4fRCA8wgIaVC62o3b-16" target="bXZ4fRCA8wgIaVC62o3b-15">
          <mxGeometry width="50" height="50" relative="1" as="geometry">
            <mxPoint x="290" y="280" as="sourcePoint" />
            <mxPoint x="340" y="230" as="targetPoint" />
          </mxGeometry>
        </mxCell>
        <mxCell id="bXZ4fRCA8wgIaVC62o3b-21" value="开始" style="text;html=1;align=center;verticalAlign=middle;resizable=0;points=[];autosize=1;strokeColor=none;fillColor=none;" vertex="1" parent="1">
          <mxGeometry x="-60" y="210" width="50" height="30" as="geometry" />
        </mxCell>
        <mxCell id="bXZ4fRCA8wgIaVC62o3b-22" value="结束" style="text;html=1;align=center;verticalAlign=middle;resizable=0;points=[];autosize=1;strokeColor=none;fillColor=none;" vertex="1" parent="1">
          <mxGeometry x="660" y="220" width="50" height="30" as="geometry" />
        </mxCell>
        <mxCell id="bXZ4fRCA8wgIaVC62o3b-23" value="" style="endArrow=classic;html=1;rounded=0;strokeColor=#000000;exitX=0.438;exitY=0.026;exitDx=0;exitDy=0;exitPerimeter=0;edgeStyle=orthogonalEdgeStyle;" edge="1" parent="1" source="bXZ4fRCA8wgIaVC62o3b-8" target="bXZ4fRCA8wgIaVC62o3b-18">
          <mxGeometry width="50" height="50" relative="1" as="geometry">
            <mxPoint x="290" y="280" as="sourcePoint" />
            <mxPoint x="340" y="230" as="targetPoint" />
            <Array as="points">
              <mxPoint x="295" y="160" />
              <mxPoint x="295" y="105" />
            </Array>
          </mxGeometry>
        </mxCell>
        <mxCell id="bXZ4fRCA8wgIaVC62o3b-24" value="解析异常" style="text;html=1;align=center;verticalAlign=middle;resizable=0;points=[];autosize=1;strokeColor=none;fillColor=none;" vertex="1" parent="1">
          <mxGeometry x="120" y="105" width="70" height="30" as="geometry" />
        </mxCell>
        <mxCell id="bXZ4fRCA8wgIaVC62o3b-25" value="解析成功" style="text;html=1;align=center;verticalAlign=middle;resizable=0;points=[];autosize=1;strokeColor=none;fillColor=none;" vertex="1" parent="1">
          <mxGeometry x="214" y="150" width="70" height="30" as="geometry" />
        </mxCell>
        <mxCell id="bXZ4fRCA8wgIaVC62o3b-26" value="审核通过" style="text;html=1;align=center;verticalAlign=middle;resizable=0;points=[];autosize=1;strokeColor=none;fillColor=none;" vertex="1" parent="1">
          <mxGeometry x="320" y="160" width="70" height="30" as="geometry" />
        </mxCell>
        <mxCell id="bXZ4fRCA8wgIaVC62o3b-27" value="配置" style="text;html=1;align=center;verticalAlign=middle;resizable=0;points=[];autosize=1;strokeColor=none;fillColor=none;" vertex="1" parent="1">
          <mxGeometry x="430" y="160" width="50" height="30" as="geometry" />
        </mxCell>
        <mxCell id="bXZ4fRCA8wgIaVC62o3b-28" value="审核不通过" style="text;html=1;align=center;verticalAlign=middle;resizable=0;points=[];autosize=1;strokeColor=none;fillColor=none;" vertex="1" parent="1">
          <mxGeometry x="390" y="70" width="80" height="30" as="geometry" />
        </mxCell>
        <mxCell id="bXZ4fRCA8wgIaVC62o3b-29" value="版本失效" style="text;html=1;align=center;verticalAlign=middle;resizable=0;points=[];autosize=1;strokeColor=none;fillColor=none;" vertex="1" parent="1">
          <mxGeometry x="600" y="130" width="70" height="30" as="geometry" />
        </mxCell>
        <mxCell id="bXZ4fRCA8wgIaVC62o3b-30" value="COC完成" style="text;html=1;align=center;verticalAlign=middle;resizable=0;points=[];autosize=1;strokeColor=none;fillColor=none;" vertex="1" parent="1">
          <mxGeometry x="515" y="155" width="70" height="30" as="geometry" />
        </mxCell>
        <mxCell id="bXZ4fRCA8wgIaVC62o3b-32" style="edgeStyle=orthogonalEdgeStyle;rounded=0;orthogonalLoop=1;jettySize=auto;html=1;" edge="1" parent="1" source="bXZ4fRCA8wgIaVC62o3b-31" target="bXZ4fRCA8wgIaVC62o3b-3">
          <mxGeometry relative="1" as="geometry" />
        </mxCell>
        <mxCell id="bXZ4fRCA8wgIaVC62o3b-31" value="手册传输中" style="rounded=1;whiteSpace=wrap;html=1;" vertex="1" parent="1">
          <mxGeometry x="30" y="180" width="70" height="30" as="geometry" />
        </mxCell>
        <mxCell id="bXZ4fRCA8wgIaVC62o3b-33" style="edgeStyle=orthogonalEdgeStyle;rounded=0;orthogonalLoop=1;jettySize=auto;html=1;strokeColor=#000000;" edge="1" parent="1" source="bXZ4fRCA8wgIaVC62o3b-36" target="bXZ4fRCA8wgIaVC62o3b-41">
          <mxGeometry relative="1" as="geometry" />
        </mxCell>
        <mxCell id="bXZ4fRCA8wgIaVC62o3b-34" style="edgeStyle=orthogonalEdgeStyle;rounded=0;orthogonalLoop=1;jettySize=auto;html=1;entryX=0;entryY=0.5;entryDx=0;entryDy=0;strokeColor=#000000;" edge="1" parent="1" source="bXZ4fRCA8wgIaVC62o3b-36" target="bXZ4fRCA8wgIaVC62o3b-43">
          <mxGeometry relative="1" as="geometry">
            <Array as="points">
              <mxPoint x="96.5" y="285" />
            </Array>
          </mxGeometry>
        </mxCell>
        <mxCell id="bXZ4fRCA8wgIaVC62o3b-35" style="edgeStyle=orthogonalEdgeStyle;rounded=0;orthogonalLoop=1;jettySize=auto;html=1;entryX=0;entryY=0.5;entryDx=0;entryDy=0;strokeColor=#000000;" edge="1" parent="1" source="bXZ4fRCA8wgIaVC62o3b-36" target="bXZ4fRCA8wgIaVC62o3b-45">
          <mxGeometry relative="1" as="geometry">
            <Array as="points">
              <mxPoint x="96.5" y="435" />
            </Array>
          </mxGeometry>
        </mxCell>
        <mxCell id="bXZ4fRCA8wgIaVC62o3b-36" value="解析中" style="rounded=1;whiteSpace=wrap;html=1;" vertex="1" parent="1">
          <mxGeometry x="66.5" y="330" width="70" height="30" as="geometry" />
        </mxCell>
        <mxCell id="bXZ4fRCA8wgIaVC62o3b-37" value="" style="ellipse;html=1;shape=startState;fillColor=#000000;strokeColor=#000000;" vertex="1" parent="1">
          <mxGeometry x="-140" y="330" width="30" height="30" as="geometry" />
        </mxCell>
        <mxCell id="bXZ4fRCA8wgIaVC62o3b-38" value="" style="edgeStyle=orthogonalEdgeStyle;html=1;verticalAlign=bottom;endArrow=open;endSize=8;strokeColor=#000000;rounded=0;entryX=0.981;entryY=1.008;entryDx=0;entryDy=0;entryPerimeter=0;" edge="1" parent="1" source="bXZ4fRCA8wgIaVC62o3b-37" target="bXZ4fRCA8wgIaVC62o3b-39">
          <mxGeometry relative="1" as="geometry">
            <mxPoint x="16.5" y="355" as="targetPoint" />
            <Array as="points">
              <mxPoint x="-70" y="345" />
              <mxPoint x="-70" y="345" />
            </Array>
          </mxGeometry>
        </mxCell>
        <mxCell id="bXZ4fRCA8wgIaVC62o3b-39" value="csdb同步手册" style="text;html=1;align=center;verticalAlign=middle;resizable=0;points=[];autosize=1;strokeColor=none;fillColor=none;" vertex="1" parent="1">
          <mxGeometry x="-140" y="300" width="100" height="30" as="geometry" />
        </mxCell>
        <mxCell id="bXZ4fRCA8wgIaVC62o3b-40" style="edgeStyle=orthogonalEdgeStyle;rounded=0;orthogonalLoop=1;jettySize=auto;html=1;strokeColor=#000000;" edge="1" parent="1" source="bXZ4fRCA8wgIaVC62o3b-41" target="bXZ4fRCA8wgIaVC62o3b-45">
          <mxGeometry relative="1" as="geometry" />
        </mxCell>
        <mxCell id="bXZ4fRCA8wgIaVC62o3b-41" value="待审核" style="rounded=1;whiteSpace=wrap;html=1;" vertex="1" parent="1">
          <mxGeometry x="180.5" y="330" width="70" height="30" as="geometry" />
        </mxCell>
        <mxCell id="bXZ4fRCA8wgIaVC62o3b-42" style="edgeStyle=orthogonalEdgeStyle;rounded=0;orthogonalLoop=1;jettySize=auto;html=1;strokeColor=#000000;" edge="1" parent="1" source="bXZ4fRCA8wgIaVC62o3b-43" target="bXZ4fRCA8wgIaVC62o3b-48">
          <mxGeometry relative="1" as="geometry" />
        </mxCell>
        <mxCell id="bXZ4fRCA8wgIaVC62o3b-43" value="解析失败" style="rounded=1;whiteSpace=wrap;html=1;" vertex="1" parent="1">
          <mxGeometry x="180.5" y="270" width="70" height="30" as="geometry" />
        </mxCell>
        <mxCell id="bXZ4fRCA8wgIaVC62o3b-44" style="edgeStyle=orthogonalEdgeStyle;rounded=0;orthogonalLoop=1;jettySize=auto;html=1;entryX=0;entryY=0.5;entryDx=0;entryDy=0;strokeColor=#000000;" edge="1" parent="1" source="bXZ4fRCA8wgIaVC62o3b-45" target="bXZ4fRCA8wgIaVC62o3b-47">
          <mxGeometry relative="1" as="geometry">
            <Array as="points" />
          </mxGeometry>
        </mxCell>
        <mxCell id="bXZ4fRCA8wgIaVC62o3b-45" value="已发布" style="rounded=1;whiteSpace=wrap;html=1;" vertex="1" parent="1">
          <mxGeometry x="180.5" y="420" width="70" height="30" as="geometry" />
        </mxCell>
        <mxCell id="bXZ4fRCA8wgIaVC62o3b-46" style="edgeStyle=orthogonalEdgeStyle;rounded=0;orthogonalLoop=1;jettySize=auto;html=1;strokeColor=#000000;" edge="1" parent="1" source="bXZ4fRCA8wgIaVC62o3b-47" target="bXZ4fRCA8wgIaVC62o3b-48">
          <mxGeometry relative="1" as="geometry" />
        </mxCell>
        <mxCell id="bXZ4fRCA8wgIaVC62o3b-47" value="失效" style="rounded=1;whiteSpace=wrap;html=1;" vertex="1" parent="1">
          <mxGeometry x="386.5" y="420" width="70" height="30" as="geometry" />
        </mxCell>
        <mxCell id="bXZ4fRCA8wgIaVC62o3b-48" value="" style="ellipse;html=1;shape=endState;fillColor=#000000;strokeColor=#ff0000;" vertex="1" parent="1">
          <mxGeometry x="476.5" y="330" width="30" height="30" as="geometry" />
        </mxCell>
        <mxCell id="bXZ4fRCA8wgIaVC62o3b-49" value="开始" style="text;html=1;align=center;verticalAlign=middle;resizable=0;points=[];autosize=1;strokeColor=none;fillColor=none;" vertex="1" parent="1">
          <mxGeometry x="-150" y="360" width="50" height="30" as="geometry" />
        </mxCell>
        <mxCell id="bXZ4fRCA8wgIaVC62o3b-50" value="" style="endArrow=classic;html=1;rounded=0;strokeColor=#000000;exitX=1;exitY=0.5;exitDx=0;exitDy=0;entryX=0.5;entryY=0;entryDx=0;entryDy=0;edgeStyle=orthogonalEdgeStyle;" edge="1" parent="1" source="bXZ4fRCA8wgIaVC62o3b-41" target="bXZ4fRCA8wgIaVC62o3b-47">
          <mxGeometry width="50" height="50" relative="1" as="geometry">
            <mxPoint x="206.5" y="430" as="sourcePoint" />
            <mxPoint x="256.5" y="380" as="targetPoint" />
            <Array as="points">
              <mxPoint x="421.5" y="345" />
            </Array>
          </mxGeometry>
        </mxCell>
        <mxCell id="bXZ4fRCA8wgIaVC62o3b-51" value="解析异常" style="text;html=1;align=center;verticalAlign=middle;resizable=0;points=[];autosize=1;strokeColor=none;fillColor=none;" vertex="1" parent="1">
          <mxGeometry x="66.5" y="260" width="70" height="30" as="geometry" />
        </mxCell>
        <mxCell id="bXZ4fRCA8wgIaVC62o3b-52" value="解析成功" style="text;html=1;align=center;verticalAlign=middle;resizable=0;points=[];autosize=1;strokeColor=none;fillColor=none;" vertex="1" parent="1">
          <mxGeometry x="126.5" y="360" width="70" height="30" as="geometry" />
        </mxCell>
        <mxCell id="bXZ4fRCA8wgIaVC62o3b-53" value="审核通过" style="text;html=1;align=center;verticalAlign=middle;resizable=0;points=[];autosize=1;strokeColor=none;fillColor=none;" vertex="1" parent="1">
          <mxGeometry x="216.5" y="380" width="70" height="30" as="geometry" />
        </mxCell>
        <mxCell id="bXZ4fRCA8wgIaVC62o3b-54" value="审核不通过" style="text;html=1;align=center;verticalAlign=middle;resizable=0;points=[];autosize=1;strokeColor=none;fillColor=none;" vertex="1" parent="1">
          <mxGeometry x="315" y="315" width="80" height="30" as="geometry" />
        </mxCell>
        <mxCell id="bXZ4fRCA8wgIaVC62o3b-55" value="版本失效" style="text;html=1;align=center;verticalAlign=middle;resizable=0;points=[];autosize=1;strokeColor=none;fillColor=none;" vertex="1" parent="1">
          <mxGeometry x="276.5" y="410" width="70" height="30" as="geometry" />
        </mxCell>
        <mxCell id="bXZ4fRCA8wgIaVC62o3b-56" value="结束" style="text;html=1;align=center;verticalAlign=middle;resizable=0;points=[];autosize=1;strokeColor=none;fillColor=none;" vertex="1" parent="1">
          <mxGeometry x="501.5" y="345" width="50" height="30" as="geometry" />
        </mxCell>
        <mxCell id="bXZ4fRCA8wgIaVC62o3b-57" value="完成传输" style="text;html=1;align=center;verticalAlign=middle;resizable=0;points=[];autosize=1;strokeColor=none;fillColor=none;" vertex="1" parent="1">
          <mxGeometry x="81.5" y="160" width="70" height="30" as="geometry" />
        </mxCell>
        <mxCell id="bXZ4fRCA8wgIaVC62o3b-59" style="edgeStyle=orthogonalEdgeStyle;rounded=0;orthogonalLoop=1;jettySize=auto;html=1;entryX=0;entryY=0.5;entryDx=0;entryDy=0;" edge="1" parent="1" source="bXZ4fRCA8wgIaVC62o3b-58" target="bXZ4fRCA8wgIaVC62o3b-36">
          <mxGeometry relative="1" as="geometry" />
        </mxCell>
        <mxCell id="bXZ4fRCA8wgIaVC62o3b-58" value="手册传输中" style="rounded=1;whiteSpace=wrap;html=1;" vertex="1" parent="1">
          <mxGeometry x="-60" y="330" width="70" height="30" as="geometry" />
        </mxCell>
        <mxCell id="bXZ4fRCA8wgIaVC62o3b-60" value="传输完成" style="text;html=1;align=center;verticalAlign=middle;resizable=0;points=[];autosize=1;strokeColor=none;fillColor=none;" vertex="1" parent="1">
          <mxGeometry y="310" width="70" height="30" as="geometry" />
        </mxCell>
      </root>
    </mxGraphModel>
  </diagram>
</mxfile>
